solid OpenSCAD_Model
  facet normal 1 0 0
    outer loop
      vertex 30 0 15
      vertex 30 5 0
      vertex 30 5 15
    endloop
  endfacet
  facet normal 1 0 0
    outer loop
      vertex 30 5 0
      vertex 30 0 15
      vertex 30 0 0
    endloop
  endfacet
  facet normal 0 0 1
    outer loop
      vertex 0 5 15
      vertex 30 0 15
      vertex 30 5 15
    endloop
  endfacet
  facet normal 0 0 1
    outer loop
      vertex 30 0 15
      vertex 0 5 15
      vertex 0 0 15
    endloop
  endfacet
  facet normal 0 0 -1
    outer loop
      vertex 25 0 0
      vertex 30 5 0
      vertex 30 0 0
    endloop
  endfacet
  facet normal 0 0 -1
    outer loop
      vertex 30 5 0
      vertex 25 0 0
      vertex 25 5 0
    endloop
  endfacet
  facet normal 0 0 -1
    outer loop
      vertex 0 0 0
      vertex 5 5 0
      vertex 5 0 0
    endloop
  endfacet
  facet normal 0 0 -1
    outer loop
      vertex 5 5 0
      vertex 0 0 0
      vertex 0 5 0
    endloop
  endfacet
  facet normal -1 0 0
    outer loop
      vertex 0 0 0
      vertex 0 5 15
      vertex 0 5 0
    endloop
  endfacet
  facet normal -1 0 0
    outer loop
      vertex 0 5 15
      vertex 0 0 0
      vertex 0 0 15
    endloop
  endfacet
  facet normal 0 1 0
    outer loop
      vertex 30 5 15
      vertex 25 5 12.5
      vertex 0 5 15
    endloop
  endfacet
  facet normal 0 1 0
    outer loop
      vertex 30 5 0
      vertex 25 5 12.5
      vertex 30 5 15
    endloop
  endfacet
  facet normal 0 1 0
    outer loop
      vertex 25 5 12.5
      vertex 30 5 0
      vertex 25 5 0
    endloop
  endfacet
  facet normal 0 1 0
    outer loop
      vertex 5 5 12.5
      vertex 0 5 15
      vertex 25 5 12.5
    endloop
  endfacet
  facet normal 0 1 0
    outer loop
      vertex 0 5 0
      vertex 5 5 12.5
      vertex 5 5 0
    endloop
  endfacet
  facet normal 0 1 0
    outer loop
      vertex 5 5 12.5
      vertex 0 5 0
      vertex 0 5 15
    endloop
  endfacet
  facet normal 0 -1 0
    outer loop
      vertex 0 0 15
      vertex 5 0 12.5
      vertex 30 0 15
    endloop
  endfacet
  facet normal 0 -1 0
    outer loop
      vertex 0 0 0
      vertex 5 0 12.5
      vertex 0 0 15
    endloop
  endfacet
  facet normal 0 -1 0
    outer loop
      vertex 5 0 12.5
      vertex 0 0 0
      vertex 5 0 0
    endloop
  endfacet
  facet normal 0 -1 0
    outer loop
      vertex 25 0 12.5
      vertex 30 0 15
      vertex 5 0 12.5
    endloop
  endfacet
  facet normal 0 -1 0
    outer loop
      vertex 30 0 0
      vertex 25 0 12.5
      vertex 25 0 0
    endloop
  endfacet
  facet normal 0 -1 0
    outer loop
      vertex 25 0 12.5
      vertex 30 0 0
      vertex 30 0 15
    endloop
  endfacet
  facet normal -1 0 0
    outer loop
      vertex 25 0 0
      vertex 25 5 12.5
      vertex 25 5 0
    endloop
  endfacet
  facet normal -1 0 0
    outer loop
      vertex 25 5 12.5
      vertex 25 0 0
      vertex 25 0 12.5
    endloop
  endfacet
  facet normal 0 0 -1
    outer loop
      vertex 5 0 12.5
      vertex 25 5 12.5
      vertex 25 0 12.5
    endloop
  endfacet
  facet normal 0 0 -1
    outer loop
      vertex 25 5 12.5
      vertex 5 0 12.5
      vertex 5 5 12.5
    endloop
  endfacet
  facet normal 1 0 0
    outer loop
      vertex 5 0 12.5
      vertex 5 5 0
      vertex 5 5 12.5
    endloop
  endfacet
  facet normal 1 0 0
    outer loop
      vertex 5 5 0
      vertex 5 0 12.5
      vertex 5 0 0
    endloop
  endfacet
endsolid OpenSCAD_Model
