solid OpenSCAD_Model
  facet normal 1 0 0
    outer loop
      vertex 25 0 5
      vertex 25 5 0
      vertex 25 5 5
    endloop
  endfacet
  facet normal 1 0 0
    outer loop
      vertex 25 5 0
      vertex 25 0 5
      vertex 25 0 0
    endloop
  endfacet
  facet normal 0 0 1
    outer loop
      vertex 5 25 5
      vertex 0 25 5
      vertex 5 5 5
    endloop
  endfacet
  facet normal 0 0 1
    outer loop
      vertex 5 5 5
      vertex 25 0 5
      vertex 25 5 5
    endloop
  endfacet
  facet normal 0 0 1
    outer loop
      vertex 5 5 5
      vertex 0 0 5
      vertex 25 0 5
    endloop
  endfacet
  facet normal 0 0 1
    outer loop
      vertex 0 0 5
      vertex 5 5 5
      vertex 0 25 5
    endloop
  endfacet
  facet normal 0 0 -1
    outer loop
      vertex 25 0 0
      vertex 5 5 0
      vertex 25 5 0
    endloop
  endfacet
  facet normal 0 0 -1
    outer loop
      vertex 0 0 0
      vertex 5 5 0
      vertex 25 0 0
    endloop
  endfacet
  facet normal 0 0 -1
    outer loop
      vertex 0 25 0
      vertex 5 5 0
      vertex 0 0 0
    endloop
  endfacet
  facet normal 0 0 -1
    outer loop
      vertex 5 5 0
      vertex 0 25 0
      vertex 5 25 0
    endloop
  endfacet
  facet normal -1 0 0
    outer loop
      vertex 0 0 0
      vertex 0 25 5
      vertex 0 25 0
    endloop
  endfacet
  facet normal -1 0 0
    outer loop
      vertex 0 25 5
      vertex 0 0 0
      vertex 0 0 5
    endloop
  endfacet
  facet normal 0 1 0
    outer loop
      vertex 5 25 0
      vertex 0 25 5
      vertex 5 25 5
    endloop
  endfacet
  facet normal 0 1 0
    outer loop
      vertex 0 25 5
      vertex 5 25 0
      vertex 0 25 0
    endloop
  endfacet
  facet normal 0 -1 0
    outer loop
      vertex 0 0 0
      vertex 25 0 5
      vertex 0 0 5
    endloop
  endfacet
  facet normal 0 -1 0
    outer loop
      vertex 25 0 5
      vertex 0 0 0
      vertex 25 0 0
    endloop
  endfacet
  facet normal 1 0 0
    outer loop
      vertex 5 5 5
      vertex 5 25 0
      vertex 5 25 5
    endloop
  endfacet
  facet normal 1 0 0
    outer loop
      vertex 5 25 0
      vertex 5 5 5
      vertex 5 5 0
    endloop
  endfacet
  facet normal 0 1 0
    outer loop
      vertex 25 5 0
      vertex 5 5 5
      vertex 25 5 5
    endloop
  endfacet
  facet normal 0 1 0
    outer loop
      vertex 5 5 5
      vertex 25 5 0
      vertex 5 5 0
    endloop
  endfacet
  facet normal 0 1 0
    outer loop
      vertex 35 25 0
      vertex 30 25 5
      vertex 35 25 5
    endloop
  endfacet
  facet normal 0 1 0
    outer loop
      vertex 30 25 5
      vertex 35 25 0
      vertex 30 25 0
    endloop
  endfacet
  facet normal 1 0 0
    outer loop
      vertex 35 5 25
      vertex 35 0 25
      vertex 35 5 5
    endloop
  endfacet
  facet normal 1 0 0
    outer loop
      vertex 35 5 5
      vertex 35 25 0
      vertex 35 25 5
    endloop
  endfacet
  facet normal 1 0 0
    outer loop
      vertex 35 5 5
      vertex 35 0 0
      vertex 35 25 0
    endloop
  endfacet
  facet normal 1 0 0
    outer loop
      vertex 35 0 0
      vertex 35 5 5
      vertex 35 0 25
    endloop
  endfacet
  facet normal -1 0 0
    outer loop
      vertex 30 25 0
      vertex 30 5 5
      vertex 30 25 5
    endloop
  endfacet
  facet normal -1 0 0
    outer loop
      vertex 30 0 0
      vertex 30 5 5
      vertex 30 25 0
    endloop
  endfacet
  facet normal -1 0 0
    outer loop
      vertex 30 0 25
      vertex 30 5 5
      vertex 30 0 0
    endloop
  endfacet
  facet normal -1 0 0
    outer loop
      vertex 30 5 5
      vertex 30 0 25
      vertex 30 5 25
    endloop
  endfacet
  facet normal 0 -1 0
    outer loop
      vertex 30 0 0
      vertex 35 0 25
      vertex 30 0 25
    endloop
  endfacet
  facet normal 0 -1 0
    outer loop
      vertex 35 0 25
      vertex 30 0 0
      vertex 35 0 0
    endloop
  endfacet
  facet normal 0 0 1
    outer loop
      vertex 30 5 25
      vertex 35 0 25
      vertex 35 5 25
    endloop
  endfacet
  facet normal 0 0 1
    outer loop
      vertex 35 0 25
      vertex 30 5 25
      vertex 30 0 25
    endloop
  endfacet
  facet normal 0 0 -1
    outer loop
      vertex 30 0 0
      vertex 35 25 0
      vertex 35 0 0
    endloop
  endfacet
  facet normal 0 0 -1
    outer loop
      vertex 35 25 0
      vertex 30 0 0
      vertex 30 25 0
    endloop
  endfacet
  facet normal 0 1 0
    outer loop
      vertex 35 5 5
      vertex 30 5 25
      vertex 35 5 25
    endloop
  endfacet
  facet normal 0 1 0
    outer loop
      vertex 30 5 25
      vertex 35 5 5
      vertex 30 5 5
    endloop
  endfacet
  facet normal 0 0 1
    outer loop
      vertex 30 25 5
      vertex 35 5 5
      vertex 35 25 5
    endloop
  endfacet
  facet normal 0 0 1
    outer loop
      vertex 35 5 5
      vertex 30 25 5
      vertex 30 5 5
    endloop
  endfacet
endsolid OpenSCAD_Model
